<?xml version="1.0" encoding="UTF-8" standalone="no"?>
<svg width="818px" height="275px" viewBox="0 0 818 275" version="1.1" xmlns="http://www.w3.org/2000/svg" xmlns:xlink="http://www.w3.org/1999/xlink" xmlns:sketch="http://www.bohemiancoding.com/sketch/ns">
    <!-- Generator: Sketch 3.3.3 (12072) - http://www.bohemiancoding.com/sketch -->
    <title>Plume Logo</title>
    <desc>Created with Sketch.</desc>
    <defs></defs>
    <g id="Page-1" stroke="none" stroke-width="1" fill="none" fill-rule="evenodd" sketch:type="MSPage">
        <g id="icon" sketch:type="MSLayerGroup" transform="translate(0.000000, 53.000000)">
            <rect id="bg" sketch:type="MSShapeGroup" x="0" y="0" width="200" height="200"></rect>
            <circle id="circle-mask" fill="#EA6C6C" sketch:type="MSShapeGroup" cx="100" cy="100" r="100"></circle>
            <g id="smoke-copy" transform="translate(41.000000, 36.000000)" sketch:type="MSShapeGroup">
                <g id="main" fill="#CA5A5A">
                    <circle id="Oval-2-Copy-6" cx="30.5" cy="48.5" r="21.5"></circle>
                    <circle id="Oval-2-Copy-7" cx="55" cy="79" r="25"></circle>
                    <circle id="Oval-2-Copy-8" cx="55" cy="27" r="27"></circle>
                    <circle id="Oval-2-Copy-9" cx="77" cy="61" r="27"></circle>
                    <circle id="Oval-2-Copy-10" cx="80" cy="30" r="27"></circle>
                    <circle id="Oval-2-Copy-11" cx="52.5" cy="101.5" r="13.5"></circle>
                    <circle id="Oval-2-Copy-15" cx="47.5" cy="121.5" r="6.5"></circle>
                    <circle id="Oval-2-Copy-16" cx="53" cy="113" r="11"></circle>
                    <circle id="Oval-2-Copy-14" cx="13.5" cy="35.5" r="13.5"></circle>
                    <circle id="Oval-2-Copy-13" cx="30.5" cy="71.5" r="16.5"></circle>
                    <circle id="Oval-2-Copy-12" cx="30.5" cy="27.5" r="16.5"></circle>
                </g>
                <g id="main-copy" transform="translate(6.000000, 0.000000)" fill="#FFFFFF">
                    <circle id="Oval-2-Copy-6" cx="30.5" cy="48.5" r="21.5"></circle>
                    <circle id="Oval-2-Copy-7" cx="55" cy="79" r="25"></circle>
                    <circle id="Oval-2-Copy-8" cx="55" cy="27" r="27"></circle>
                    <circle id="Oval-2-Copy-9" cx="77" cy="61" r="27"></circle>
                    <circle id="Oval-2-Copy-10" cx="80" cy="30" r="27"></circle>
                    <circle id="Oval-2-Copy-11" cx="52.5" cy="101.5" r="13.5"></circle>
                    <circle id="Oval-2-Copy-15" cx="47.5" cy="121.5" r="6.5"></circle>
                    <circle id="Oval-2-Copy-16" cx="53" cy="113" r="11"></circle>
                    <circle id="Oval-2-Copy-14" cx="13.5" cy="35.5" r="13.5"></circle>
                    <circle id="Oval-2-Copy-13" cx="30.5" cy="71.5" r="16.5"></circle>
                    <circle id="Oval-2-Copy-12" cx="30.5" cy="27.5" r="16.5"></circle>
                </g>
                <path d="M60.9636995,75.9727102 C69.7851838,82.6201754 82.325245,80.8577847 88.9727102,72.0363005 C95.6201754,63.2148162 93.8577847,50.674755 85.0363005,44.0272898 C76.2148162,37.3798246 63.674755,39.1422153 57.0272898,47.9636995 C50.3798246,56.7851838 52.1422153,69.325245 60.9636995,75.9727102 L60.9636995,75.9727102 Z" id="drop-shadow-2" fill="#DFDFDF"></path>
                <path d="M61.9636995,70.9727102 C70.7851838,77.6201754 83.325245,75.8577847 89.9727102,67.0363005 C96.6201754,58.2148162 94.8577847,45.674755 86.0363005,39.0272898 C77.2148162,32.3798246 64.674755,34.1422153 58.0272898,42.9636995 C51.3798246,51.7851838 53.1422153,64.325245 61.9636995,70.9727102 L61.9636995,70.9727102 Z" id="shadow-2" fill="#FFFFFF"></path>
                <path d="M34.7259242,67.2901882 C42.3420348,73.240546 53.3398304,71.8901865 59.2901882,64.2740758 C65.240546,56.6579652 63.8901865,45.6601696 56.2740758,39.7098118 C48.6579652,33.759454 37.6601696,35.1098135 31.7098118,42.7259242 C25.759454,50.3420348 27.1098135,61.3398304 34.7259242,67.2901882 L34.7259242,67.2901882 Z" id="drop-shadow-1" fill="#DFDFDF"></path>
                <path d="M37.3023235,62.9722342 C45.5710453,69.4324678 57.5112228,67.9663983 63.9714563,59.6976765 C70.4316898,51.4289547 68.9656203,39.4887772 60.6968985,33.0285437 C52.4281767,26.5683102 40.4879993,28.0343797 34.0277658,36.3031015 C27.5675322,44.5718233 29.0336017,56.5120007 37.3023235,62.9722342 L37.3023235,62.9722342 Z" id="shadow-1" fill="#FFFFFF"></path>
            </g>
        </g>
        <path d="M258,248 L239.2,248 L239.2,105.2 L257.6,105.2 L257.6,120 L258.2,120 C261.266682,114.933308 265.766637,110.766683 271.7,107.5 C277.633363,104.233317 284.533294,102.6 292.4,102.6 C299.466702,102.6 305.899971,103.866654 311.7,106.4 C317.500029,108.933346 322.499979,112.466644 326.7,117 C330.900021,121.533356 334.133322,126.833303 336.4,132.9 C338.666678,138.966697 339.8,145.466632 339.8,152.4 C339.8,159.333368 338.666678,165.866636 336.4,172 C334.133322,178.133364 330.933354,183.466644 326.8,188 C322.666646,192.533356 317.666696,196.099987 311.8,198.7 C305.933304,201.300013 299.33337,202.6 292,202.6 C285.199966,202.6 278.80003,201.133348 272.8,198.2 C266.79997,195.266652 262.066684,191.13336 258.6,185.8 L258,185.8 L258,248 Z M320.4,152.4 C320.4,147.999978 319.73334,143.733354 318.4,139.6 C317.06666,135.466646 315.06668,131.800016 312.4,128.6 C309.73332,125.399984 306.433353,122.866676 302.5,121 C298.566647,119.133324 294.000026,118.2 288.8,118.2 C283.999976,118.2 279.633353,119.133324 275.7,121 C271.766647,122.866676 268.400014,125.399984 265.6,128.6 C262.799986,131.800016 260.633341,135.466646 259.1,139.6 C257.566659,143.733354 256.8,148.066644 256.8,152.6 C256.8,157.133356 257.566659,161.466646 259.1,165.6 C260.633341,169.733354 262.799986,173.366651 265.6,176.5 C268.400014,179.633349 271.766647,182.133324 275.7,184 C279.633353,185.866676 283.999976,186.8 288.8,186.8 C294.000026,186.8 298.566647,185.833343 302.5,183.9 C306.433353,181.966657 309.73332,179.400016 312.4,176.2 C315.06668,172.999984 317.06666,169.333354 318.4,165.2 C319.73334,161.066646 320.4,156.800022 320.4,152.4 L320.4,152.4 Z M385.2,200 L366.4,200 L366.4,48.8 L385.2,48.8 L385.2,200 Z M484.8,200 C484.533332,197.599988 484.333334,194.900015 484.2,191.9 C484.066666,188.899985 484,186.40001 484,184.4 L483.6,184.4 C481.199988,189.466692 477.166695,193.766649 471.5,197.3 C465.833305,200.833351 459.533368,202.6 452.6,202.6 C446.466636,202.6 441.166689,201.60001 436.7,199.6 C432.233311,197.59999 428.566681,194.833351 425.7,191.3 C422.833319,187.766649 420.700007,183.66669 419.3,179 C417.899993,174.33331 417.2,169.33336 417.2,164 L417.2,105.2 L436,105.2 L436,157.6 C436,161.466686 436.299997,165.166649 436.9,168.7 C437.500003,172.233351 438.599992,175.33332 440.2,178 C441.800008,180.66668 443.999986,182.799992 446.8,184.4 C449.600014,186.000008 453.199978,186.8 457.6,186.8 C465.200038,186.8 471.33331,183.966695 476,178.3 C480.66669,172.633305 483,165.066714 483,155.6 L483,105.2 L501.8,105.2 L501.8,179.6 C501.8,182.133346 501.866666,185.39998 502,189.4 C502.133334,193.40002 502.333332,196.933318 502.6,200 L484.8,200 Z M552.8,120.8 C555.200012,115.733308 559.033307,111.433351 564.3,107.9 C569.566693,104.366649 575.799964,102.6 583,102.6 C589.400032,102.6 595.166641,104.066652 600.3,107 C605.433359,109.933348 609.466652,114.799966 612.4,121.6 C615.600016,115.466636 620.066638,110.766683 625.8,107.5 C631.533362,104.233317 637.799966,102.6 644.6,102.6 C650.733364,102.6 655.999978,103.633323 660.4,105.7 C664.800022,107.766677 668.466652,110.533316 671.4,114 C674.333348,117.466684 676.499993,121.53331 677.9,126.2 C679.300007,130.86669 680,135.86664 680,141.2 L680,200 L661.2,200 L661.2,147.4 C661.2,143.533314 660.86667,139.866684 660.2,136.4 C659.53333,132.933316 658.400008,129.86668 656.8,127.2 C655.199992,124.53332 653.06668,122.400008 650.4,120.8 C647.73332,119.199992 644.333354,118.4 640.2,118.4 C635.933312,118.4 632.266682,119.299991 629.2,121.1 C626.133318,122.900009 623.633343,125.233319 621.7,128.1 C619.766657,130.966681 618.366671,134.199982 617.5,137.8 C616.633329,141.400018 616.2,145.066648 616.2,148.8 L616.2,200 L597.4,200 L597.4,143.6 C597.4,139.866648 597.06667,136.466682 596.4,133.4 C595.73333,130.333318 594.600008,127.700011 593,125.5 C591.399992,123.299989 589.333346,121.566673 586.8,120.3 C584.266654,119.033327 581.133352,118.4 577.4,118.4 C570.466632,118.4 564.700023,121.233305 560.1,126.9 C555.499977,132.566695 553.2,140.133286 553.2,149.6 L553.2,200 L534.4,200 L534.4,125.6 C534.4,123.066654 534.333334,119.80002 534.2,115.8 C534.066666,111.79998 533.866668,108.266682 533.6,105.2 L551.4,105.2 C551.666668,107.600012 551.866666,110.299985 552,113.3 C552.133334,116.300015 552.2,118.79999 552.2,120.8 L552.8,120.8 Z M781.2,144.2 C781.066666,140.466648 780.433339,136.966683 779.3,133.7 C778.166661,130.433317 776.500011,127.600012 774.3,125.2 C772.099989,122.799988 769.366683,120.900007 766.1,119.5 C762.833317,118.099993 759.000022,117.4 754.6,117.4 C750.59998,117.4 746.833351,118.099993 743.3,119.5 C739.766649,120.900007 736.700013,122.799988 734.1,125.2 C731.499987,127.600012 729.366675,130.433317 727.7,133.7 C726.033325,136.966683 725.066668,140.466648 724.8,144.2 L781.2,144.2 Z M800.2,151.8 L800.2,155 C800.2,156.066672 800.133334,157.133328 800,158.2 L724.8,158.2 C724.933334,162.20002 725.833325,165.966649 727.5,169.5 C729.166675,173.033351 731.399986,176.099987 734.2,178.7 C737.000014,181.300013 740.233315,183.333326 743.9,184.8 C747.566685,186.266674 751.466646,187 755.6,187 C762.000032,187 767.53331,185.600014 772.2,182.8 C776.86669,179.999986 780.53332,176.60002 783.2,172.6 L796.4,183.2 C791.333308,189.8667 785.366701,194.766651 778.5,197.9 C771.633299,201.033349 764.000042,202.6 755.6,202.6 C748.399964,202.6 741.733364,201.400012 735.6,199 C729.466636,196.599988 724.200022,193.233355 719.8,188.9 C715.399978,184.566645 711.933346,179.333364 709.4,173.2 C706.866654,167.066636 705.6,160.266704 705.6,152.8 C705.6,145.46663 706.833321,138.700031 709.3,132.5 C711.766679,126.299969 715.199978,121.000022 719.6,116.6 C724.000022,112.199978 729.19997,108.766679 735.2,106.3 C741.20003,103.833321 747.666632,102.6 754.6,102.6 C761.533368,102.6 767.833305,103.733322 773.5,106 C779.166695,108.266678 783.966647,111.533312 787.9,115.8 C791.833353,120.066688 794.866656,125.233303 797,131.3 C799.133344,137.366697 800.2,144.199962 800.2,151.8 L800.2,151.8 Z" id="text-drop-shadow" fill="#DFDFDF" sketch:type="MSShapeGroup"></path>
        <path d="M265,248 L246.2,248 L246.2,105.2 L264.6,105.2 L264.6,120 L265.2,120 C268.266682,114.933308 272.766637,110.766683 278.7,107.5 C284.633363,104.233317 291.533294,102.6 299.4,102.6 C306.466702,102.6 312.899971,103.866654 318.7,106.4 C324.500029,108.933346 329.499979,112.466644 333.7,117 C337.900021,121.533356 341.133322,126.833303 343.4,132.9 C345.666678,138.966697 346.8,145.466632 346.8,152.4 C346.8,159.333368 345.666678,165.866636 343.4,172 C341.133322,178.133364 337.933354,183.466644 333.8,188 C329.666646,192.533356 324.666696,196.099987 318.8,198.7 C312.933304,201.300013 306.33337,202.6 299,202.6 C292.199966,202.6 285.80003,201.133348 279.8,198.2 C273.79997,195.266652 269.066684,191.13336 265.6,185.8 L265,185.8 L265,248 Z M327.4,152.4 C327.4,147.999978 326.73334,143.733354 325.4,139.6 C324.06666,135.466646 322.06668,131.800016 319.4,128.6 C316.73332,125.399984 313.433353,122.866676 309.5,121 C305.566647,119.133324 301.000026,118.2 295.8,118.2 C290.999976,118.2 286.633353,119.133324 282.7,121 C278.766647,122.866676 275.400014,125.399984 272.6,128.6 C269.799986,131.800016 267.633341,135.466646 266.1,139.6 C264.566659,143.733354 263.8,148.066644 263.8,152.6 C263.8,157.133356 264.566659,161.466646 266.1,165.6 C267.633341,169.733354 269.799986,173.366651 272.6,176.5 C275.400014,179.633349 278.766647,182.133324 282.7,184 C286.633353,185.866676 290.999976,186.8 295.8,186.8 C301.000026,186.8 305.566647,185.833343 309.5,183.9 C313.433353,181.966657 316.73332,179.400016 319.4,176.2 C322.06668,172.999984 324.06666,169.333354 325.4,165.2 C326.73334,161.066646 327.4,156.800022 327.4,152.4 L327.4,152.4 Z M392.2,200 L373.4,200 L373.4,48.8 L392.2,48.8 L392.2,200 Z M491.8,200 C491.533332,197.599988 491.333334,194.900015 491.2,191.9 C491.066666,188.899985 491,186.40001 491,184.4 L490.6,184.4 C488.199988,189.466692 484.166695,193.766649 478.5,197.3 C472.833305,200.833351 466.533368,202.6 459.6,202.6 C453.466636,202.6 448.166689,201.60001 443.7,199.6 C439.233311,197.59999 435.566681,194.833351 432.7,191.3 C429.833319,187.766649 427.700007,183.66669 426.3,179 C424.899993,174.33331 424.2,169.33336 424.2,164 L424.2,105.2 L443,105.2 L443,157.6 C443,161.466686 443.299997,165.166649 443.9,168.7 C444.500003,172.233351 445.599992,175.33332 447.2,178 C448.800008,180.66668 450.999986,182.799992 453.8,184.4 C456.600014,186.000008 460.199978,186.8 464.6,186.8 C472.200038,186.8 478.33331,183.966695 483,178.3 C487.66669,172.633305 490,165.066714 490,155.6 L490,105.2 L508.8,105.2 L508.8,179.6 C508.8,182.133346 508.866666,185.39998 509,189.4 C509.133334,193.40002 509.333332,196.933318 509.6,200 L491.8,200 Z M559.8,120.8 C562.200012,115.733308 566.033307,111.433351 571.3,107.9 C576.566693,104.366649 582.799964,102.6 590,102.6 C596.400032,102.6 602.166641,104.066652 607.3,107 C612.433359,109.933348 616.466652,114.799966 619.4,121.6 C622.600016,115.466636 627.066638,110.766683 632.8,107.5 C638.533362,104.233317 644.799966,102.6 651.6,102.6 C657.733364,102.6 662.999978,103.633323 667.4,105.7 C671.800022,107.766677 675.466652,110.533316 678.4,114 C681.333348,117.466684 683.499993,121.53331 684.9,126.2 C686.300007,130.86669 687,135.86664 687,141.2 L687,200 L668.2,200 L668.2,147.4 C668.2,143.533314 667.86667,139.866684 667.2,136.4 C666.53333,132.933316 665.400008,129.86668 663.8,127.2 C662.199992,124.53332 660.06668,122.400008 657.4,120.8 C654.73332,119.199992 651.333354,118.4 647.2,118.4 C642.933312,118.4 639.266682,119.299991 636.2,121.1 C633.133318,122.900009 630.633343,125.233319 628.7,128.1 C626.766657,130.966681 625.366671,134.199982 624.5,137.8 C623.633329,141.400018 623.2,145.066648 623.2,148.8 L623.2,200 L604.4,200 L604.4,143.6 C604.4,139.866648 604.06667,136.466682 603.4,133.4 C602.73333,130.333318 601.600008,127.700011 600,125.5 C598.399992,123.299989 596.333346,121.566673 593.8,120.3 C591.266654,119.033327 588.133352,118.4 584.4,118.4 C577.466632,118.4 571.700023,121.233305 567.1,126.9 C562.499977,132.566695 560.2,140.133286 560.2,149.6 L560.2,200 L541.4,200 L541.4,125.6 C541.4,123.066654 541.333334,119.80002 541.2,115.8 C541.066666,111.79998 540.866668,108.266682 540.6,105.2 L558.4,105.2 C558.666668,107.600012 558.866666,110.299985 559,113.3 C559.133334,116.300015 559.2,118.79999 559.2,120.8 L559.8,120.8 Z M788.2,144.2 C788.066666,140.466648 787.433339,136.966683 786.3,133.7 C785.166661,130.433317 783.500011,127.600012 781.3,125.2 C779.099989,122.799988 776.366683,120.900007 773.1,119.5 C769.833317,118.099993 766.000022,117.4 761.6,117.4 C757.59998,117.4 753.833351,118.099993 750.3,119.5 C746.766649,120.900007 743.700013,122.799988 741.1,125.2 C738.499987,127.600012 736.366675,130.433317 734.7,133.7 C733.033325,136.966683 732.066668,140.466648 731.8,144.2 L788.2,144.2 Z M807.2,151.8 L807.2,155 C807.2,156.066672 807.133334,157.133328 807,158.2 L731.8,158.2 C731.933334,162.20002 732.833325,165.966649 734.5,169.5 C736.166675,173.033351 738.399986,176.099987 741.2,178.7 C744.000014,181.300013 747.233315,183.333326 750.9,184.8 C754.566685,186.266674 758.466646,187 762.6,187 C769.000032,187 774.53331,185.600014 779.2,182.8 C783.86669,179.999986 787.53332,176.60002 790.2,172.6 L803.4,183.2 C798.333308,189.8667 792.366701,194.766651 785.5,197.9 C778.633299,201.033349 771.000042,202.6 762.6,202.6 C755.399964,202.6 748.733364,201.400012 742.6,199 C736.466636,196.599988 731.200022,193.233355 726.8,188.9 C722.399978,184.566645 718.933346,179.333364 716.4,173.2 C713.866654,167.066636 712.6,160.266704 712.6,152.8 C712.6,145.46663 713.833321,138.700031 716.3,132.5 C718.766679,126.299969 722.199978,121.000022 726.6,116.6 C731.000022,112.199978 736.19997,108.766679 742.2,106.3 C748.20003,103.833321 754.666632,102.6 761.6,102.6 C768.533368,102.6 774.833305,103.733322 780.5,106 C786.166695,108.266678 790.966647,111.533312 794.9,115.8 C798.833353,120.066688 801.866656,125.233303 804,131.3 C806.133344,137.366697 807.2,144.199962 807.2,151.8 L807.2,151.8 Z" id="text" fill="#8D8790" sketch:type="MSShapeGroup"></path>
    </g>
</svg>